#!OML:ASF F:\twosubjects\two\Thursday\Session 1\justin.ASF
:FULLY-SPECIFIED
:DEGREES
332
root 11.5069 17.9254 -16.0994 6.10544 -75.743 3.16789
lowerback 0.327484 -0.526905 -2.4353
upperback -1.90746 -0.717194 4.90446
thorax -2.06099 -0.299007 6.48305
lowerneck -22.3319 8.49231 -6.82087
upperneck 18.0412 14.0553 -0.890199
head 8.91173 5.94183 2.66437
rclavicle 3.29983e-014 0
rhumerus -31.4992 -16.403 -70.6074
rradius 32.5983
rwrist -5.19302
rhand -14.559 14.1758
rfingers 7.12502
rthumb 11.5901 -15.4837
lclavicle 3.29983e-014 0
lhumerus -31.2862 13.1994 84.551
lradius 36.3305
lwrist -11.9369
lhand 0.385253 38.069
lfingers 7.12502
lthumb 25.9593 66.3162
rfemur -10.2753 -2.93995 20.6373
rtibia 24.2535
rfoot -20.8846 -13.1777
rtoes -7.07424
lfemur -3.87516 5.9973 -19.1498
ltibia 8.12418
lfoot -8.92964 3.09857
ltoes -18.9244
333
root 11.5056 17.9285 -16.0983 5.24538 -75.7794 3.85968
lowerback 0.342777 -0.382503 -2.59979
upperback -1.89896 -0.524254 4.73131
thorax -2.08593 -0.198113 6.39049
lowerneck -22.224 8.3955 -6.29936
upperneck 18.0522 13.8708 -1.42476
head 8.98654 5.82332 2.38977
rclavicle -1.48095e-014 4.77083e-014
rhumerus -31.6848 -16.501 -70.8419
rradius 32.752
rwrist -5.73656
rhand -13.9097 14.1414
rfingers 7.12502
rthumb 12.2162 -15.4818
lclavicle -1.48095e-014 4.77083e-014
lhumerus -31.3445 14.0563 84.4812
lradius 35.937
lwrist -12.8531
lhand -0.00675139 38.0462
lfingers 7.12502
lthumb 25.5839 66.3479
rfemur -10.0168 -2.71932 20.4547
rtibia 24.2022
rfoot -20.8566 -13.3417
rtoes -7.07662
lfemur -3.48781 6.02388 -19.3144
ltibia 7.77629
lfoot -8.9873 2.75602
ltoes -16.2538
334
root 11.5089 17.9369 -16.094 4.50011 -75.8326 4.45408
lowerback 0.389079 -0.0901224 -2.6404
upperback -1.92455 -0.1313 4.43278
thorax -2.18905 0.00309402 6.09002
lowerneck -22.2806 8.26003 -5.374
upperneck 18.3712 13.551 -1.97847
head 9.22675 5.64672 2.05252
rclavicle -5.86415e-015 -3.49861e-014
rhumerus -32.0751 -17.1702 -71.1104
rradius 32.9756
rwrist -6.05706
rhand -14.276 13.7991
rfingers 7.12502
rthumb 11.8629 -15.8448
lclavicle -5.86415e-015 -3.49861e-014
lhumerus -31.0131 13.7977 84.3997
lradius 35.2937
lwrist -13.1603
lhand -0.460932 38.2021
lfingers 7.12502
lthumb 25.1488 66.5656
rfemur -9.87269 -2.52044 20.2946
rtibia 24.2333
rfoot -20.7866 -13.5455
rtoes -7.73037
lfemur -3.03948 6.06851 -19.4988
ltibia 7.32878
lfoot -8.81473 2.54714
ltoes -15.898
335
root 11.5153 17.943 -16.0889 4.21896 -75.7842 4.71686
lowerback 0.279354 0.243609 -2.49995
upperback -1.97914 0.318954 4.03982
thorax -2.23483 0.227448 5.58417
lowerneck -22.2323 8.09493 -4.47863
upperneck 18.4967 13.0989 -2.19527
head 9.34746 5.46734 1.79499
rclavicle 1.68967e-014 4.13472e-014
rhumerus -32.4498 -18.3216 -71.3987
rradius 32.935
rwrist -6.28483
rhand -14.9861 13.6951
rfingers 7.12502
rthumb 11.1781 -15.9871
lclavicle 1.68967e-014 4.13472e-014
lhumerus -30.5914 12.7327 84.3174
lradius 34.7469
lwrist -12.9376
lhand -1.40122 38.5462
lfingers 7.12502
lthumb 24.2476 67.033
rfemur -9.93115 -2.7831 20.2263
rtibia 24.3159
rfoot -20.6059 -13.5604
rtoes -9.22139
lfemur -2.65872 6.02194 -19.5988
ltibia 6.64422
lfoot -8.24094 2.47348
ltoes -16.476
336
root 11.5176 17.9523 -16.0887 3.94903 -75.8483 5.07444
lowerback 0.0635051 0.642413 -2.41512
upperback -2.07771 0.854846 3.58168
thorax -2.26667 0.494805 5.04304
lowerneck -22.1658 7.85832 -3.66148
upperneck 18.6544 12.5245 -2.20241
head 9.45085 5.25298 1.59804
rclavicle 8.24956e-015 7.95139e-015
rhumerus -33.0261 -19.5654 -71.5994
rradius 32.9659
rwrist -6.36209
rhand -15.3077 13.6582
rfingers 7.12502
rthumb 10.868 -16.0405
lclavicle 8.24956e-015 7.95139e-015
lhumerus -30.205 11.3821 84.254
lradius 34.2137
lwrist -12.5721
lhand -2.74041 39.2505
lfingers 7.12502
lthumb 22.9631 67.9029
rfemur -10.0543 -3.02574 20.1111
rtibia 24.3495
rfoot -20.4425 -13.3369
rtoes -9.66715
lfemur -2.49518 6.08876 -19.7148
ltibia 6.14041
lfoot -7.88452 2.40684
ltoes -16.9096
